<?xml version="1.0" encoding="utf-8"?>
<!-- Svg Vector Icons : http://www.onlinewebfonts.com/icon -->
<!DOCTYPE svg PUBLIC "-//W3C//DTD SVG 1.1//EN" "http://www.w3.org/Graphics/SVG/1.1/DTD/svg11.dtd">
<svg version="1.1" xmlns="http://www.w3.org/2000/svg" xmlns:xlink="http://www.w3.org/1999/xlink" x="0px" y="0px" viewBox="0 0 1000 1000" enable-background="new 0 0 1000 1000" xml:space="preserve">
<metadata> Svg Vector Icons : http://www.onlinewebfonts.com/icon </metadata>
<g><g transform="translate(0.000000,511.000000) scale(0.100000,-0.100000)"><path d="M4811.3,3239.9c-233-36.8-3949.1-991.4-4409-1132.4c-263.7-79.7-318.9-122.6-298.4-224.8c8.2-34.8,24.5-73.6,38.8-87.9C206.1,1731.4,2117.3,1187.7,4010,693c639.8-165.6,868.7-216.7,970.9-218.7c106.3,0,445.6,79.7,1745.6,410.8C7613.7,1112,8343.4,1298,8347.5,1298s6.1-566.2,6.1-1257.1c0-821.7-6.1-1257.1-20.4-1257.1c-38.8,0-186-151.3-231-233c-34.7-65.4-45-118.5-45-237.1c0-184,45-284.1,181.9-400.6l89.9-79.7l-120.6-337.3c-65.4-186-120.6-357.7-120.6-380.2c0-24.5,18.4-65.4,38.8-92c38.8-47,49-49.1,394.5-55.2c337.3-6.1,357.7-4.1,410.8,36.8c79.7,63.4,71.5,130.8-57.2,492.6c-61.3,173.8-112.4,323-112.4,335.2c2,10.2,36.8,45,79.7,75.6c51.1,32.7,98.1,94,134.9,167.6c49.1,100.2,55.2,132.9,47,263.7c-8.2,200.3-79.7,322.9-247.3,421.1l-116.5,69.5V104.3v1273.4l77.7,20.4c40.9,10.2,296.4,75.6,566.2,145.1c269.8,69.5,511,139,535.5,155.3c61.3,38.8,77.7,112.4,40.9,186c-34.7,67.4,6.1,51.1-801.3,302.5c-925.9,286.2-1776.3,523.3-3070.2,858.5C5209.9,3250.1,5050.5,3276.7,4811.3,3239.9z"/><path d="M1853.6,384.3c0-535.5,4.1-596.9,40.9-674.5c202.4-449.7,993.4-768.6,2248.4-909.6c355.7-38.8,1451.3-32.7,1798.8,10.2C6959.6-1060.8,7628-836,7955-506.9c184,184,184,179.9,190.1,860.5c4.1,327,0,596.9-6.1,596.9c-14.3,0-2199.4-554-2636.8-668.4c-402.7-104.2-506.9-106.3-899.4-16.3c-537.6,122.6-1349.1,329.1-2058.4,523.3C2178.6,889.2,1872,971,1865.8,971C1859.7,971,1853.6,707.3,1853.6,384.3z"/></g></g>
</svg>